<?xml version="1.0" standalone="no"?>
<svg version="1.0" xmlns="http://www.w3.org/2000/svg" viewBox="0 0 300 300">
<g transform="translate(0.000000,301.000000) scale(0.100000,-0.100000)"
fill="#000000" stroke="none">
<path d="M2101 2544 c-255 -78 -469 -166 -695 -286 l-90 -48 -28 26 -27 27 24
19 c16 13 25 29 24 46 0 15 -3 21 -6 15 -11 -29 -43 -11 -85 49 -47 67 -84 87
-132 68 -28 -10 -66 -64 -66 -93 0 -10 11 -29 24 -41 36 -37 38 -53 11 -92
-14 -20 -25 -42 -25 -48 0 -6 -10 -16 -22 -21 -33 -14 -33 -38 -2 -75 27 -32
27 -33 8 -47 -17 -12 -19 -12 -22 1 -4 19 -23 21 -40 4 -7 -7 -8 -17 -2 -29 6
-10 6 -20 1 -23 -5 -3 -11 3 -14 14 -6 23 -25 27 -33 6 -3 -8 -13 -12 -23 -9
-11 3 -21 -2 -24 -11 -4 -9 -13 -16 -22 -16 -8 0 -15 -9 -15 -19 0 -25 -16
-36 -24 -16 -8 23 -46 19 -46 -5 0 -11 -7 -20 -15 -20 -12 0 -20 -13 -13 -22
1 -2 -5 -14 -12 -28 -8 -14 -13 -28 -12 -32 1 -3 -30 -32 -68 -63 -52 -42 -70
-62 -70 -80 0 -36 22 -31 75 15 67 58 83 65 104 46 19 -18 28 -74 40 -246 l6
-95 46 -9 c39 -8 50 -15 79 -57 18 -27 41 -51 51 -54 23 -8 25 -41 4 -61 -20
-20 -19 -34 3 -34 23 0 62 28 62 44 0 7 8 21 19 30 10 9 21 29 24 44 8 37 60
88 98 96 46 9 152 7 168 -3 7 -5 11 -15 9 -22 -3 -8 1 -22 10 -31 14 -17 12
-18 -25 -18 -86 0 -173 -46 -293 -155 -31 -27 -75 -66 -99 -86 -42 -33 -45
-39 -52 -102 -6 -47 -29 -118 -75 -230 -36 -89 -72 -178 -79 -197 -10 -28 -19
-36 -42 -38 -26 -3 -29 -7 -30 -38 -1 -29 4 -37 24 -45 39 -14 122 -10 200 11
39 10 80 16 91 13 17 -4 21 1 24 24 3 24 7 28 35 28 17 1 41 9 52 19 18 17 82
168 95 227 5 23 59 77 168 167 16 13 33 6 161 -67 112 -64 165 -102 236 -167
92 -87 184 -210 216 -291 15 -37 22 -43 53 -48 58 -9 101 -33 114 -61 10 -21
17 -24 37 -19 51 12 55 10 77 -35 36 -75 46 -79 111 -45 61 31 88 75 81 126
-4 23 0 28 25 33 16 3 40 6 53 6 32 0 80 20 69 28 -6 4 -20 22 -33 40 l-23 33
24 44 25 43 -28 43 c-16 23 -26 47 -24 53 3 7 -9 25 -26 41 -16 16 -30 36 -30
45 0 20 -27 45 -106 98 -65 43 -178 142 -170 149 2 2 87 -40 187 -95 298 -161
349 -185 372 -175 18 8 12 14 -49 47 -347 192 -611 343 -621 356 -7 8 -12 22
-10 31 2 19 -20 49 -37 49 -6 0 -19 8 -28 17 -9 10 -33 31 -52 47 -20 16 -36
35 -36 42 0 8 -13 20 -30 29 -16 9 -30 20 -30 26 0 6 -10 19 -22 28 l-21 18
22 32 c12 17 43 47 68 66 38 29 54 35 95 35 64 0 110 -20 128 -56 8 -16 21
-37 29 -47 18 -22 79 -52 88 -43 3 3 2 6 -4 6 -6 0 -20 22 -32 49 -11 27 -31
62 -45 78 -13 15 -27 39 -31 53 -11 36 -25 51 -70 71 -85 39 -198 11 -272 -67
-41 -44 -48 -27 -32 75 14 92 66 181 105 181 13 0 42 7 64 16 22 9 56 14 75
12 41 -5 42 -2 13 23 -29 23 -71 24 -108 2 -25 -15 -35 -15 -83 -3 -30 7 -60
9 -66 6 -11 -7 -61 88 -61 115 0 27 -93 118 -141 139 -60 25 -136 21 -181 -11
-34 -25 -38 -24 -38 6 0 28 1 29 238 142 179 86 413 184 564 238 59 21 105 41
102 46 -8 13 -19 11 -143 -27z m-955 -251 c-7 -7 -26 7 -26 19 0 6 6 6 15 -2
9 -7 13 -15 11 -17z m-126 -160 c0 -20 -3 -24 -11 -16 -7 7 -9 19 -6 27 10 24
17 19 17 -11z m57 -160 c15 -32 62 -84 117 -129 l39 -32 -21 -30 c-12 -16 -22
-35 -22 -40 0 -6 -5 -23 -10 -38 l-11 -28 -27 30 c-15 16 -58 45 -95 64 -84
43 -104 68 -83 108 10 20 11 33 4 46 -5 9 -7 20 -4 23 3 4 6 1 6 -5 0 -7 12
-12 26 -12 23 0 25 3 20 24 -4 18 -1 28 11 35 28 16 37 13 50 -16z m-162 -224
c13 -25 42 -69 65 -98 23 -29 40 -54 38 -55 -1 -2 -15 -6 -30 -10 -24 -6 -29
-2 -42 27 -7 19 -26 44 -42 56 -46 36 -66 78 -59 121 4 23 2 41 -4 45 -6 3
-11 11 -11 17 0 19 60 -54 85 -103z"/>
</g>
</svg>
